<svg data-v-423bf9ae="" xmlns="http://www.w3.org/2000/svg" viewBox="0 0 213.5452036156623 60" class="font"><!----><!----><!----><g data-v-423bf9ae="" id="4f5c5728-48f0-495d-82db-a562252d02a9" fill="black" transform="matrix(5.667336080289279,0,0,5.667336080289279,-4.19382824157573,-19.90943994032166)"><path d="M11.79 10.50C12.11 10.50 12.59 10.42 12.99 10.29C12.94 10.77 12.89 11.19 12.89 11.54C12.89 12.49 13.50 12.89 14.46 12.89C15.18 12.89 15.51 12.39 15.51 12.39L15.30 12.22C15.30 12.22 15.01 12.61 14.60 12.61C14.80 9.49 16.03 4.54 16.21 3.82C16.44 3.85 16.67 3.89 16.93 3.96L17.00 3.70C13.55 2.73 11.91 5.71 10.33 8.58C10.15 8.90 9.98 9.23 9.80 9.53C9.44 9.30 9.07 9.00 8.72 8.72C8.16 8.29 7.60 7.91 7 7.66C6.92 7.53 6.82 7.41 6.72 7.28C6.17 6.66 5.38 6.34 4.41 6.34C2.03 6.34 0.74 8.39 0.74 10.30C0.74 11.31 1.09 12.24 1.71 12.92C2.42 13.69 3.47 14.10 4.73 14.10C7.18 14.10 8.64 12.14 9.91 9.93C10.49 10.28 11.10 10.50 11.79 10.50ZM7.45 9.28C7.45 8.85 7.36 8.44 7.21 8.06C7.67 8.30 8.11 8.60 8.55 8.95C8.92 9.24 9.28 9.52 9.67 9.77C8.44 11.91 7.04 13.82 4.73 13.82C3.54 13.82 2.58 13.44 1.92 12.73C1.34 12.11 1.02 11.24 1.02 10.30C1.02 8.53 2.21 6.62 4.41 6.62C5.36 6.62 6.02 6.92 6.52 7.46L6.55 7.50C6.17 7.39 5.75 7.32 5.31 7.32C3.53 7.32 3.00 8.86 2.98 8.88L3.25 8.96C3.28 8.90 3.72 7.60 5.31 7.60C5.87 7.60 6.36 7.71 6.83 7.90C7.06 8.30 7.18 8.78 7.18 9.28C7.18 10.46 6.51 11.63 5.25 11.63C4.49 11.63 4.05 11.13 4.05 10.64C4.05 9.63 4.96 9.52 4.98 9.52L4.96 9.24C4.94 9.24 3.77 9.38 3.77 10.64C3.77 11.26 4.33 11.91 5.25 11.91C6.68 11.91 7.45 10.56 7.45 9.28ZM10.58 8.72C11.66 6.75 12.71 4.84 14.29 4.10C14.07 4.96 13.34 7.83 13.03 9.98C11.84 10.46 10.91 10.19 10.05 9.69ZM22.81 8.36C22.81 7.25 22.15 6.59 21.06 6.59C20.09 6.59 19.59 7.17 19.26 7.91L19.26 7.83C19.26 7.04 18.79 6.59 17.92 6.59C17.50 6.59 17.14 6.78 16.87 7.10L17.08 7.27C17.26 7.04 17.50 6.90 17.78 6.87L17.32 9.46C17.22 10.05 17.09 10.57 17.09 11.00C17.09 11.68 17.57 12.17 18.44 12.17C18.86 12.17 19.22 11.98 19.49 11.66L19.28 11.49C19.10 11.72 18.84 11.86 18.56 11.89L19.04 9.27C19.42 7.88 20.02 7.01 20.64 7.01C21.01 7.01 21.21 7.17 21.21 7.62C21.21 8.44 20.71 10.07 20.71 11.02C20.71 11.76 21.14 12.17 21.98 12.17C22.89 12.17 23.16 11.66 23.16 11.66L22.95 11.49C22.95 11.49 22.61 11.89 22.25 11.89C22.30 10.68 22.81 9.24 22.81 8.36ZM29.79 8.36C29.79 7.25 29.13 6.59 28.04 6.59C27.08 6.59 26.57 7.17 26.25 7.91L26.25 7.83C26.25 7.04 25.77 6.59 24.91 6.59C24.49 6.59 24.12 6.78 23.86 7.10L24.07 7.27C24.25 7.04 24.49 6.90 24.77 6.87L24.30 9.46C24.21 10.05 24.08 10.57 24.08 11.00C24.08 11.68 24.56 12.17 25.42 12.17C25.84 12.17 26.21 11.98 26.47 11.66L26.26 11.49C26.08 11.72 25.83 11.86 25.55 11.89L26.03 9.27C26.40 7.88 27.01 7.01 27.62 7.01C28.00 7.01 28.20 7.17 28.20 7.62C28.20 8.44 27.69 10.07 27.69 11.02C27.69 11.76 28.13 12.17 28.97 12.17C29.88 12.17 30.14 11.66 30.14 11.66L29.93 11.49C29.93 11.49 29.60 11.89 29.23 11.89C29.29 10.68 29.79 9.24 29.79 8.36ZM33.82 6.59C32.00 6.59 30.79 7.90 30.79 10.15C30.79 11.37 31.54 12.17 33.08 12.17C35.25 12.17 35.63 10.32 35.63 10.32L35.38 10.21C35.38 10.22 34.87 11.84 33.39 11.84C32.84 11.84 32.37 11.51 32.37 10.61C32.37 10.33 32.38 10.07 32.40 9.81C34.41 9.80 35.60 9.20 35.60 8.01C35.60 7.15 35.10 6.59 33.82 6.59ZM34.23 6.94C34.89 6.94 35.25 7.41 35.25 8.01C35.25 8.89 34.52 9.48 32.44 9.49C32.68 7.70 33.50 6.94 34.23 6.94ZM36.39 11.14C36.39 11.70 36.83 12.15 37.39 12.15C37.95 12.15 38.42 11.70 38.42 11.14C38.42 10.58 37.95 10.12 37.39 10.12C36.83 10.12 36.39 10.58 36.39 11.14Z"></path></g><!----><!----></svg>